# xmcd
#
# Track frame offsets:
#	150
#	20498
#	39654
#	61616
#	83396
#	97352
#	113869
#	127232
#	143649
#	156053
#	172338
#	186968
#	209068
#	223533
#	243488
#	255685
#	273089
#	286667
#	300641
#	315671
#
# Disc length: 4484 seconds
#
# Revision: 1
# Processed by: cddbd v1.5.2PL0 Copyright (c) Steve Scherf et al.
# Submitted via: audiograbber 1.83.01
#
DISCID=26118214
DTITLE=Tomas Linka - 40 odstinu country_CD2
DYEAR=2015
DGENRE=Country
TTITLE0=To nejlepsi dat
TTITLE1=Hraj fer
TTITLE2=Do tmy se koukej
TTITLE3=Kouzelnej kout
TTITLE4=Vendo, koncim, jdu
TTITLE5=Vyznani pumparovo
TTITLE6=Do Australie
TTITLE7=No tak delej!
TTITLE8=Hosticka hymna
TTITLE9=Kdyz te zitra nepotkam
TTITLE10=Volny pad
TTITLE11=Nesmely
TTITLE12=Byl to pad
TTITLE13=Vanocni cas
TTITLE14=Tequila Sunrise
TTITLE15=Key West
TTITLE16=Obraz
TTITLE17=Jasna volba
TTITLE18=Tri pirka
TTITLE19=Lolita
EXTD=
EXTT0=
EXTT1=
EXTT2=
EXTT3=
EXTT4=
EXTT5=
EXTT6=
EXTT7=
EXTT8=
EXTT9=
EXTT10=
EXTT11=
EXTT12=
EXTT13=
EXTT14=
EXTT15=
EXTT16=
EXTT17=
EXTT18=
EXTT19=
PLAYORDER=
